<?xml version="1.0" encoding="utf-8"?>
<!-- Generator: Adobe Illustrator 24.1.3, SVG Export Plug-In . SVG Version: 6.00 Build 0)  -->
<svg version="1.1" id="Layer_1" xmlns="http://www.w3.org/2000/svg" xmlns:xlink="http://www.w3.org/1999/xlink" x="0px" y="0px"
	 viewBox="0 0 307.8 85.3" style="enable-background:new 0 0 307.8 85.3;" xml:space="preserve">
<style type="text/css">
	.st0{fill:#193862;}
	.st1{fill:#FFFFFF;}
	.st2{fill:none;stroke:#1F52A0;stroke-width:1.9869;stroke-miterlimit:10;}
	.st3{fill:none;stroke:#315BA6;stroke-width:1.9869;stroke-miterlimit:10;}
	.st4{fill:none;stroke:#3559A5;stroke-width:1.9869;stroke-miterlimit:10;}
	.st5{fill:#3559A5;}
</style>
<g>
	<path class="st0" d="M84.7,41.6L84.7,41.6l-3.6-2.2c0-0.4-0.1-0.7-0.1-1l3.1-2.9c0.3-0.3,0.4-0.7,0.4-1.1c-0.1-0.4-0.4-0.8-0.8-0.9
		L79.8,32c-0.1-0.3-0.2-0.7-0.3-1l2.5-3.4c0.3-0.3,0.3-0.8,0.1-1.2c-0.2-0.4-0.5-0.7-0.9-0.8L77,24.9c-0.2-0.3-0.3-0.6-0.5-0.9
		l1.8-3.8c0.2-0.4,0.1-0.8-0.1-1.2c-0.2-0.4-0.6-0.6-1.1-0.5l-4.2,0.1c-0.2-0.3-0.4-0.5-0.7-0.8l1-4.1c0.1-0.4,0-0.9-0.3-1.2
		c-0.3-0.3-0.7-0.4-1.2-0.3l-4.1,1c-0.3-0.2-0.5-0.4-0.8-0.7l0.2-4.2c0-0.4-0.2-0.8-0.6-1.1C66,7,65.5,6.9,65.2,7.1l-3.8,1.7
		c-0.3-0.2-0.6-0.3-0.9-0.5l-0.7-4.2c-0.1-0.4-0.4-0.8-0.8-0.9c-0.4-0.2-0.9-0.1-1.2,0.1l-3.4,2.5c-0.3-0.1-0.7-0.2-1-0.3l-1.5-3.9
		c-0.1-0.4-0.5-0.7-0.9-0.8c-0.4-0.1-0.9,0.1-1.1,0.4L47,4.3c-0.3,0-0.7-0.1-1-0.1l-2.2-3.6C43.5,0.2,43.1,0,42.7,0
		c-0.4,0-0.8,0.2-1.1,0.6l-2.2,3.6c-0.3,0-0.7,0.1-1,0.1l-2.9-3.1c-0.3-0.3-0.7-0.4-1.1-0.4c-0.4,0.1-0.8,0.4-0.9,0.8L32,5.5
		c-0.3,0.1-0.7,0.2-1,0.3l-3.4-2.5c-0.3-0.3-0.8-0.3-1.2-0.1c-0.4,0.2-0.7,0.5-0.7,0.9l-0.7,4.2c-0.3,0.2-0.6,0.3-0.9,0.5l-3.8-1.7
		C19.8,6.9,19.3,7,19,7.2c-0.4,0.2-0.6,0.6-0.6,1.1l0.1,4.2c-0.3,0.2-0.5,0.4-0.8,0.7l-4.1-1c-0.4-0.1-0.9,0-1.2,0.3
		c-0.3,0.3-0.4,0.7-0.3,1.2l1,4.1c-0.2,0.3-0.4,0.5-0.7,0.8l-4.2-0.1c-0.4,0-0.8,0.2-1.1,0.5c-0.2,0.4-0.3,0.8-0.1,1.2L8.9,24
		c-0.2,0.3-0.3,0.6-0.5,0.9l-4.1,0.7c-0.4,0.1-0.8,0.4-0.9,0.8c-0.2,0.4-0.1,0.8,0.1,1.2l2.5,3.4c-0.1,0.3-0.2,0.7-0.3,1l-3.9,1.5
		c-0.4,0.1-0.7,0.5-0.8,0.9c-0.1,0.4,0.1,0.9,0.4,1.1l3.1,2.9c0,0.3-0.1,0.7-0.1,1l-3.6,2.2h0C0.2,41.8,0,42.2,0,42.7
		c0,0.4,0.2,0.8,0.6,1l3.6,2.2c0,0.3,0.1,0.7,0.1,1l-3.1,2.9c-0.3,0.3-0.5,0.7-0.4,1.1c0.1,0.4,0.4,0.8,0.8,0.9l3.9,1.5
		c0.1,0.3,0.2,0.7,0.3,1l-2.5,3.4c-0.2,0.3-0.3,0.8-0.1,1.2c0.1,0.4,0.5,0.7,0.9,0.7l4.1,0.7c0.2,0.3,0.3,0.6,0.5,0.9l-1.7,3.8
		c-0.2,0.4-0.1,0.8,0.1,1.2c0.2,0.4,0.6,0.6,1.1,0.5l4.2-0.1c0.2,0.3,0.4,0.5,0.7,0.8l-1,4.1c-0.1,0.4,0,0.8,0.3,1.1
		c0.3,0.3,0.7,0.4,1.2,0.3l4.1-1c0.3,0.2,0.5,0.4,0.8,0.7L18.4,77c0,0.4,0.2,0.8,0.6,1.1c0.3,0.2,0.8,0.3,1.2,0.1l3.8-1.7
		c0.3,0.2,0.6,0.3,0.9,0.5l0.7,4.1c0.1,0.4,0.4,0.8,0.7,0.9c0.4,0.2,0.8,0.1,1.2-0.1l3.4-2.5c0.3,0.1,0.7,0.2,1,0.3l1.5,3.9
		c0.1,0.4,0.5,0.7,0.9,0.8c0.4,0.1,0.9-0.1,1.1-0.4l2.9-3.1c0.4,0,0.7,0.1,1,0.1l2.2,3.6c0.2,0.4,0.6,0.6,1.1,0.6
		c0.4,0,0.8-0.2,1.1-0.6l2.2-3.6c0.3,0,0.7-0.1,1-0.1l2.9,3.1c0.3,0.3,0.7,0.5,1.1,0.4c0.4-0.1,0.8-0.4,0.9-0.8l1.5-3.9
		c0.3-0.1,0.7-0.2,1-0.3l3.4,2.5c0.4,0.2,0.8,0.3,1.2,0.1c0.4-0.2,0.7-0.5,0.7-0.9l0.7-4.1c0.3-0.2,0.6-0.3,0.9-0.5l3.8,1.7
		c0.4,0.2,0.8,0.1,1.2-0.1c0.4-0.2,0.6-0.6,0.5-1.1l-0.2-4.2c0.3-0.2,0.5-0.4,0.8-0.7l4.1,1c0.4,0.1,0.9,0,1.2-0.3
		c0.3-0.3,0.4-0.7,0.3-1.1l-1-4.1c0.2-0.3,0.4-0.5,0.7-0.8l4.2,0.1c0.4,0,0.8-0.2,1.1-0.5c0.2-0.4,0.3-0.8,0.1-1.2l-1.7-3.8
		c0.2-0.3,0.3-0.6,0.5-0.9l4.1-0.7c0.4-0.1,0.8-0.3,0.9-0.7c0.2-0.4,0.1-0.9-0.1-1.2l-2.4-3.4c0.1-0.3,0.2-0.7,0.3-1l3.9-1.5
		c0.4-0.2,0.7-0.5,0.8-0.9c0.1-0.4-0.1-0.8-0.4-1.1L81.1,47c0-0.3,0.1-0.7,0.1-1l3.6-2.2c0.4-0.2,0.6-0.6,0.6-1
		C85.3,42.2,85.1,41.8,84.7,41.6z M62.4,66.6c-1.1,0.9-2.4,1.8-3.6,2.6c-4.7,2.9-10.3,4.5-16.3,4.5c-3.4,0-6.7-0.5-9.8-1.6
		c-0.1,0-0.2-0.1-0.4-0.1c-1.1-0.4-2.1-0.8-3.2-1.2v0C28.1,70.3,27,69.7,26,69c-1.2-0.8-2.4-1.6-3.5-2.5c-0.9-0.7-1.7-1.5-2.5-2.3
		l-0.1,0l-0.1,0c-1-1.1-2-2.2-2.9-3.4c0,0,0.1,0,0.1,0c-3.4-4.6-5.5-10.1-6-16.1h0c0-0.2,0-0.3,0-0.5c0-0.2,0-0.3,0-0.4
		c0-0.1,0-0.3,0-0.4c0-0.3,0-0.5,0-0.8v-0.1l0,0c0-0.8,0-1.6,0.1-2.4c0-0.2,0-0.4,0.1-0.7h0l0.2-0.1c0.1-1.2,0.3-2.4,0.6-3.5
		c0.4-1.6,0.8-3.2,1.4-4.8c0.5-1.3,1.1-2.6,1.8-3.9L15,27c2.3-4,5.5-7.5,9.2-10.1c0.1-0.1,0.3-0.2,0.4-0.3c4.4-3.1,9.6-5,15.3-5.4
		c0.8-0.1,1.7-0.1,2.5-0.1c0.8,0,1.5,0,2.2,0.1c12.3,0.9,22.6,8.8,26.9,19.8c0.6,1.6,1.1,3.2,1.5,4.8c0.5,2.2,0.7,4.4,0.7,6.7
		C73.9,52.1,69.4,60.9,62.4,66.6z"/>
	<circle class="st1" cx="42.7" cy="42.7" r="33.5"/>
	<g>
		<ellipse class="st2" cx="42.7" cy="42.8" rx="27.2" ry="13.6"/>
		
			<ellipse transform="matrix(0.8957 -0.4447 0.4447 0.8957 -14.4551 23.4064)" class="st3" cx="42.7" cy="42.5" rx="13.6" ry="27.2"/>
		<path class="st4" d="M30.6,67.1c6.7,3.3,17.6-4.9,24.2-18.3s6.6-27-0.1-30.4"/>
		
			<ellipse transform="matrix(0.4447 -0.8957 0.8957 0.4447 -14.6426 61.9687)" class="st4" cx="42.7" cy="42.8" rx="27.2" ry="13.6"/>
		<path class="st3" d="M30.6,18.2c6.7-3.3,17.6,4.9,24.2,18.3s6.6,27-0.1,30.4S37.2,62,30.5,48.6"/>
		<path class="st2" d="M69.8,42.8c0,7.5-12.2,13.6-27.2,13.6s-27.2-6.1-27.2-13.6"/>
	</g>
	<g id="Layer_x0020_1_2_">
		<g id="_1421344023328_2_">
			<path class="st0" d="M50.1,40.8L50.1,40.8c0.3-2.2-1.3-3.3-3.6-4.1l0.7-2.9l-1.8-0.4l-0.7,2.8c-0.5-0.1-0.9-0.2-1.4-0.3l0.7-2.9
				l-1.8-0.4l-0.7,2.9c-0.4-0.1-0.8-0.2-1.1-0.3v0L38,34.6l-0.5,1.9c0,0,1.3,0.3,1.3,0.3c0.7,0.2,0.8,0.6,0.8,1l-0.8,3.3
				c0,0,0.1,0,0.2,0.1c-0.1,0-0.1,0-0.2,0l-1.2,4.7c-0.1,0.2-0.3,0.5-0.8,0.4c-0.1,0-1.3-0.3-1.3-0.3l-0.9,2l2.3,0.6
				c0.4,0.1,0.8,0.2,1.3,0.3l-0.7,3l1.8,0.4l0.7-2.9c0.5,0.1,0.9,0.3,1.4,0.4l-0.7,2.9l1.8,0.4l0.7-2.9c3,0.6,5.3,0.3,6.3-2.4
				c0.8-2.2,0-3.5-1.6-4.3C49,43.1,49.9,42.4,50.1,40.8z M46.1,46.5c-0.5,2.2-4.3,1-5.5,0.7l1-3.9C42.8,43.6,46.6,44.2,46.1,46.5z
				 M46.6,40.8c-0.5,2-3.6,1-4.6,0.7l0.9-3.5C43.9,38.2,47.2,38.7,46.6,40.8z"/>
			<path class="st0" d="M50.1,40.8L50.1,40.8c0.3-2.2-1.3-3.3-3.6-4.1l0.7-2.9l-1.8-0.4l-0.7,2.8c-0.5-0.1-0.9-0.2-1.4-0.3l0.7-2.9
				l-1.8-0.4l-0.7,2.9c-0.4-0.1-0.8-0.2-1.1-0.3v0L38,34.6l-0.5,1.9c0,0,1.3,0.3,1.3,0.3c0.7,0.2,0.8,0.6,0.8,1l-0.8,3.3
				c0,0,0.1,0,0.2,0.1c-0.1,0-0.1,0-0.2,0l-1.2,4.7c-0.1,0.2-0.3,0.5-0.8,0.4c-0.1,0-1.3-0.3-1.3-0.3l-0.9,2l2.3,0.6
				c0.4,0.1,0.8,0.2,1.3,0.3l-0.7,3l1.8,0.4l0.7-2.9c0.5,0.1,0.9,0.3,1.4,0.4l-0.7,2.9l1.8,0.4l0.7-2.9c3,0.6,5.3,0.3,6.3-2.4
				c0.8-2.2,0-3.5-1.6-4.3C49,43.1,49.9,42.4,50.1,40.8z M46.1,46.5c-0.5,2.2-4.3,1-5.5,0.7l1-3.9C42.8,43.6,46.6,44.2,46.1,46.5z
				 M46.6,40.8c-0.5,2-3.6,1-4.6,0.7l0.9-3.5C43.9,38.2,47.2,38.7,46.6,40.8z"/>
		</g>
	</g>
</g>
<g>
	<g>
		<path class="st0" d="M116.4,60.4c-1.6-0.6-2.9-1.5-4.1-2.6c-1.1-1.1-2-2.4-2.6-3.9c-0.6-1.5-0.9-3.1-0.9-4.9v-1c0-2,0.3-3.8,1-5.5
			s1.5-3,2.6-4.2c1.1-1.2,2.4-2,3.9-2.7c1.5-0.6,3-0.9,4.7-0.9c1.9,0,3.5,0.3,4.9,0.9c1.4,0.6,2.6,1.5,3.6,2.6c1,1.1,1.7,2.5,2.2,4
			c0.5,1.6,0.7,3.2,0.7,5.1v2.4h-17.8v0.1c0.2,1.1,0.4,2.1,0.8,2.8s0.9,1.4,1.5,2c0.6,0.6,1.4,1.1,2.2,1.5s1.8,0.5,2.8,0.5
			c1.4,0,2.7-0.3,3.9-0.8c1.2-0.5,2.2-1.3,3-2.3l3,2.9c-0.9,1.2-2.2,2.3-3.9,3.3c-1.8,1-3.9,1.5-6.4,1.5
			C119.7,61.3,118,61,116.4,60.4z M118.7,39.7c-0.7,0.3-1.3,0.7-1.8,1.2c-0.5,0.6-1,1.2-1.4,2c-0.4,0.8-0.6,1.7-0.8,2.6h12.1v-0.4
			c0-0.7-0.1-1.5-0.4-2.2s-0.6-1.4-1.1-1.9c-0.5-0.5-1.1-1-1.8-1.3c-0.7-0.3-1.6-0.5-2.5-0.5C120.1,39.3,119.3,39.4,118.7,39.7z"/>
		<path class="st0" d="M153.8,24.3v31.8h7.8v4.7h-21.7v-4.7h8.1V29.1h-8.1v-4.7H153.8z"/>
		<path class="st0" d="M174.8,60.4c-1.6-0.6-2.9-1.5-4.1-2.6c-1.1-1.1-2-2.4-2.6-3.9c-0.6-1.5-0.9-3.1-0.9-4.9v-1c0-2,0.3-3.8,1-5.5
			s1.5-3,2.6-4.2c1.1-1.2,2.4-2,3.9-2.7c1.5-0.6,3-0.9,4.7-0.9c1.9,0,3.5,0.3,4.9,0.9c1.4,0.6,2.6,1.5,3.6,2.6c1,1.1,1.7,2.5,2.2,4
			c0.5,1.6,0.7,3.2,0.7,5.1v2.4H173v0.1c0.2,1.1,0.4,2.1,0.8,2.8s0.9,1.4,1.5,2c0.6,0.6,1.4,1.1,2.2,1.5s1.8,0.5,2.8,0.5
			c1.4,0,2.7-0.3,3.9-0.8c1.2-0.5,2.2-1.3,3-2.3l3,2.9c-0.9,1.2-2.2,2.3-3.9,3.3c-1.8,1-3.9,1.5-6.4,1.5
			C178.1,61.3,176.4,61,174.8,60.4z M177.1,39.7c-0.7,0.3-1.3,0.7-1.8,1.2c-0.5,0.6-1,1.2-1.4,2c-0.4,0.8-0.6,1.7-0.8,2.6h12.1v-0.4
			c0-0.7-0.1-1.5-0.4-2.2s-0.6-1.4-1.1-1.9c-0.5-0.5-1.1-1-1.8-1.3c-0.7-0.3-1.6-0.5-2.5-0.5C178.5,39.3,177.8,39.4,177.1,39.7z"/>
		<path class="st0" d="M210.5,56.4c0.7-0.2,1.2-0.5,1.7-0.9c0.5-0.4,0.9-0.9,1.2-1.4c0.3-0.5,0.4-1.1,0.4-1.8h5.3
			c0,1.3-0.3,2.4-0.8,3.5c-0.6,1.1-1.4,2-2.3,2.8c-1,0.8-2.1,1.5-3.4,1.9c-1.3,0.5-2.6,0.7-4.1,0.7c-2,0-3.7-0.3-5.2-1
			c-1.5-0.7-2.7-1.6-3.7-2.8c-1-1.2-1.8-2.5-2.3-4.1c-0.5-1.6-0.8-3.2-0.8-5v-0.8c0-1.8,0.2-3.4,0.7-5c0.5-1.6,1.2-2.9,2.2-4.1
			c1-1.2,2.2-2.1,3.7-2.8c1.5-0.7,3.2-1,5.2-1c1.6,0,3,0.2,4.3,0.7c1.3,0.5,2.5,1.1,3.4,2c1,0.9,1.7,1.9,2.2,3.1
			c0.5,1.2,0.8,2.5,0.8,3.9h-5.3c0-0.7-0.1-1.4-0.4-2c-0.3-0.6-0.6-1.2-1.1-1.6c-0.5-0.5-1.1-0.8-1.7-1.1c-0.7-0.3-1.4-0.4-2.2-0.4
			c-1.2,0-2.2,0.2-3,0.7c-0.8,0.5-1.4,1.1-1.9,1.9c-0.5,0.8-0.8,1.7-1,2.7c-0.2,1-0.3,2-0.3,3v0.8c0,1,0.1,2.1,0.3,3.1
			c0.2,1,0.5,1.9,1,2.6c0.5,0.8,1.1,1.4,1.9,1.9s1.8,0.7,3,0.7C209.1,56.8,209.8,56.7,210.5,56.4z"/>
		<path class="st0" d="M237.8,35.1h9.7v4.3h-9.7v12.3c0,1,0.1,1.7,0.3,2.4s0.6,1.1,1,1.5c0.4,0.4,0.9,0.6,1.5,0.8
			c0.6,0.2,1.2,0.2,1.9,0.2c0.5,0,1,0,1.5-0.1s1-0.1,1.5-0.2c0.5-0.1,0.9-0.1,1.3-0.2c0.4-0.1,0.8-0.2,1.1-0.2l0.6,3.9
			c-0.4,0.3-0.9,0.5-1.5,0.7c-0.6,0.2-1.2,0.3-1.9,0.5c-0.7,0.1-1.4,0.2-2.1,0.3c-0.7,0.1-1.4,0.1-2.2,0.1c-1.3,0-2.5-0.2-3.6-0.5
			c-1.1-0.4-2-0.9-2.8-1.7c-0.8-0.7-1.4-1.7-1.8-2.9c-0.4-1.2-0.7-2.6-0.7-4.2V39.4h-6.2v-4.3h6.2v-6.3h5.7V35.1z"/>
		<path class="st5" d="M276.1,34.9c0.9,0.1,1.5,0.3,2,0.5l-0.8,5.6c-0.9-0.2-1.7-0.3-2.6-0.4s-1.7-0.1-2.5-0.1c-1,0-1.8,0.1-2.6,0.3
			s-1.4,0.5-2,0.9c-0.6,0.4-1.2,0.9-1.6,1.4c-0.4,0.6-0.8,1.3-1.1,2v15.9h-5.7V35.1h5.3l0.2,3.6l0,0.6c1-1.4,2.3-2.6,3.8-3.4
			c1.5-0.8,3.1-1.2,4.9-1.2C274.3,34.7,275.2,34.7,276.1,34.9z"/>
		<path class="st5" d="M301.4,52.7c-0.2-0.3-0.5-0.7-1-1c-0.5-0.3-1.1-0.6-1.9-0.8c-0.8-0.3-1.8-0.5-3-0.7c-1.5-0.3-2.8-0.7-4.1-1.1
			c-1.2-0.4-2.3-1-3.2-1.6c-0.9-0.6-1.6-1.3-2-2.1s-0.7-1.8-0.7-2.9c0-1,0.2-2,0.7-3c0.5-0.9,1.2-1.8,2.2-2.5c0.9-0.7,2-1.3,3.3-1.7
			c1.3-0.4,2.8-0.6,4.4-0.6c1.7,0,3.2,0.2,4.6,0.6c1.4,0.4,2.5,1,3.5,1.7c0.9,0.7,1.7,1.6,2.2,2.6c0.5,1,0.8,2.1,0.8,3.2h-5.7
			c0-0.5-0.1-0.9-0.3-1.4c-0.2-0.4-0.5-0.8-0.9-1.2c-0.4-0.4-1-0.7-1.7-1s-1.5-0.4-2.4-0.4c-0.9,0-1.6,0.1-2.2,0.3s-1.2,0.4-1.6,0.7
			c-0.4,0.3-0.7,0.6-0.9,1c-0.2,0.4-0.3,0.8-0.3,1.2c0,0.4,0.1,0.8,0.3,1.2c0.2,0.4,0.5,0.7,0.9,0.9c0.4,0.3,1,0.5,1.7,0.8
			c0.7,0.2,1.7,0.5,2.8,0.6c1.6,0.3,3,0.6,4.3,1c1.3,0.4,2.4,0.9,3.3,1.5c0.9,0.6,1.6,1.4,2.1,2.2c0.5,0.9,0.8,1.9,0.8,3
			c0,1.1-0.3,2.2-0.8,3.1c-0.5,1-1.3,1.8-2.2,2.4c-1,0.7-2.2,1.2-3.5,1.6c-1.4,0.4-2.9,0.6-4.5,0.6c-1.9,0-3.5-0.2-4.9-0.7
			c-1.4-0.5-2.6-1.1-3.6-1.9c-1-0.8-1.7-1.7-2.2-2.7c-0.5-1-0.8-2.1-0.8-3.1h5.5c0,0.8,0.3,1.5,0.6,2c0.4,0.5,0.8,1,1.4,1.3
			c0.6,0.3,1.2,0.6,1.9,0.7c0.7,0.2,1.4,0.2,2.2,0.2c1,0,1.8-0.1,2.6-0.3c0.7-0.2,1.3-0.5,1.8-0.8c0.4-0.3,0.6-0.6,0.8-0.9
			c0.2-0.3,0.3-0.7,0.3-1.1C301.6,53.4,301.5,53,301.4,52.7z"/>
	</g>
</g>
</svg>
